<?xml version="1.0" encoding="utf-8"?>
<!-- Generator: Adobe Illustrator 21.0.0, SVG Export Plug-In . SVG Version: 6.00 Build 0)  -->
<svg version="1.1" id="Layer_1" xmlns="http://www.w3.org/2000/svg" xmlns:xlink="http://www.w3.org/1999/xlink" x="0px" y="0px"
	 viewBox="0 0 720 720" style="enable-background:new 0 0 720 720;" xml:space="preserve">
<style type="text/css">
	.st0{fill:#ffffff;}
</style>
<polygon class="st0" points="0,0 170,0 170,75 70,75 70,645 170,645 170,720 0,720 "/>
<polygon class="st0" points="720,0 550,0 550,75 650,75 650,645 550,645 550,720 720,720 "/>
<rect x="99" y="90" class="st0" width="45" height="540"/>
<rect x="576" y="90" class="st0" width="45" height="540"/>
<path class="st0" d="M185,125V40.1c0-7.1,9.3-9.7,13-3.6L534.2,592c0.5,0.9,0.8,1.9,0.8,2.9l0,84.9c0,7.1-9.3,9.7-13,3.6
	L185.8,127.8C185.3,127,185,126,185,125z"/>
</svg>
