<svg id="Layer_1" data-name="Layer 1" xmlns="http://www.w3.org/2000/svg" viewBox="0 0 720 720"><defs><style>.cls-1{fill:#ffe577;}</style></defs><title>logo</title><polygon class="cls-1" points="0 0 170 0 170 75 70 75 70 645 170 645 170 720 0 720 0 0"/><polygon class="cls-1" points="720 0 550 0 550 75 650 75 650 645 550 645 550 720 720 720 720 0"/><rect class="cls-1" x="99" y="90" width="45" height="540"/><rect class="cls-1" x="576" y="90" width="45" height="540"/><path class="cls-1" d="M185,125V40.1a7,7,0,0,1,13-3.6L534.2,592a6,6,0,0,1,.8,2.9v84.9a7,7,0,0,1-13,3.6L185.8,127.8A5.38,5.38,0,0,1,185,125Z"/></svg>