<?xml version="1.0" encoding="utf-8"?>
<!-- Generator: Adobe Illustrator 21.0.0, SVG Export Plug-In . SVG Version: 6.00 Build 0)  -->
<svg version="1.1" xmlns="http://www.w3.org/2000/svg" xmlns:xlink="http://www.w3.org/1999/xlink" x="0px" y="0px"
	 viewBox="0 0 1024 500" style="enable-background:new 0 0 1024 500;" xml:space="preserve">
<style type="text/css">
	.st0{display:none;}
	.st1{display:inline;fill:url(#SVGID_1_);}
	.st2{fill:#004235;}
</style>
<g id="Layer_1" class="st0">
	
		<linearGradient id="SVGID_1_" gradientUnits="userSpaceOnUse" x1="512" y1="284" x2="512" y2="-216" gradientTransform="matrix(1 0 0 -1 0 284)">
		<stop  offset="0" style="stop-color:#C9EFEB"/>
		<stop  offset="1" style="stop-color:#102E43"/>
	</linearGradient>
	<path class="st1" d="M0,0c48,0,67,20.2,100,20.2s72.5-14,126-14s92,19.5,139,19.5s91.5-23,147-23s82.5,18.5,144,18.5
		s65.5-14,126.5-14s66,18.5,124.5,18.5S965,0,1024,0v500H0V0z"/>
</g>
<g id="Layer_2">
	<path class="st2" d="M24,208c-5.7,13.5-12,33.7-11,58c1.4,32.3,14.4,37.4,18,67c3.8,31.3-8.6,43.5-24,103c-11,42.5-23.2,58.9-14,70
		c7.6,9.3,25.7,11.6,32,5c5.1-5.3,1.8-15.4,0-23c-7.1-29.8,4.9-34.6,10-103c2.3-30.7,3.4-46,0.7-60.3C30.3,296.9,19.8,286.8,17,261
		C14.6,238.9,19.6,220.2,24,208z"/>
	<path class="st2" d="M48.7,269c-4.3,11.5-9.3,28.8-9.3,50c0,22.4,5.5,29.3,6.7,51.3c1,19.4-2.9,21.1-10.7,66
		c-4.6,26.6-12.9,74.9-4,78c2.2,0.7,5.7-1,7.3-3.3c2.8-4.1,0-10.4-0.7-12c-4.8-11.8,1.1-30.2,7.3-64c6.4-34.7,9.6-52,8.2-67
		c-2-20.7-7.2-24.7-9.2-46.7C42.4,299.5,45.6,281.2,48.7,269z"/>
	<path class="st2" d="M56,354.7c-0.2,0,2,11.7,1.3,27.7c-0.6,14.9-3.1,19.7-8,43C49,426.8,43.2,455,43,490
		c-0.1,10.1,0.4,17.2,5.3,21c9.1,7,26-2.1,28.3-3.3c-5.2-7.2-11.8-18.5-15.3-33.3C57,456,60.9,446.3,62,422.7
		C63.9,384.1,56.3,354.6,56,354.7z"/>
	<path class="st2" d="M369.8,517c-5.1-9-11.5-23.6-10.7-41.3c0.9-19.3,9.9-27.8,13.3-49.3c1.7-10.3,2.5-26-3.3-46.7
		c5.6,8.6,12.6,21.8,14,38.7c1.6,19.1-5.5,23.3-6.7,45.3c-1.8,33.4,12.9,56.5,6.7,60C381.5,524.6,378.1,524.4,369.8,517z"/>
	<path class="st2" d="M380.4,512.3c-6-7.4-3.3-18.4,6-50c10.8-36.9,10.8-34.6,11.3-38.7c2.9-24.4-5.7-32.4-4.7-58.7
		c0.6-16.1,4.5-28.9,7.3-36.7c-1.8,7.5-3.9,18.8-3.8,32.7c0.2,14.5,2.6,18.4,3.8,34c1.3,18.3-0.7,32.6-2.5,45
		c-3.9,27.4-8.3,27.6-7.5,43c1,19.4,8.6,31.5,4,34.8C391.4,519.9,384.3,517.1,380.4,512.3z"/>
	<path class="st2" d="M403.9,398c0.1,0,4.8,17.5,3.3,41.8c-0.6,9.5-1.7,12.5-2.5,19.5c-1.3,12.2-1,29.9,7.5,53
		c-3.7-0.6-7.3-1.2-11-1.8c-1.8-5.7-3.8-13.8-4.3-23.8c-0.4-10.5,1.1-18.8,3-28.8c2.9-15.2,4.6-15.1,6-24.6
		C408.9,413.3,403.8,398,403.9,398z"/>
	<path class="st2" d="M722.4,518.7c-5.9-4.5,6.3-22.7,8-45.3c0.8-11.1-0.6-27.4-12-48c13.7,15,19,29.5,21.3,38c0.6,2.2,11,42-6,53.3
		C730.6,518.8,725.2,520.9,722.4,518.7z"/>
	<path class="st2" d="M755.4,424.4c0.9,0.4-8.7,13.3-7.7,31.3c0.7,13.5,6.7,17.6,6.3,30c-0.3,10.5-5,18.8-8.7,24c-3-1.2-6-2.4-9-3.7
		c3.3-3.9,7.7-10.4,9.3-19c2.6-13.5-4-19.6-3-34C743.9,436.2,754.5,424,755.4,424.4z"/>
	<path class="st2" d="M1005,508c6.9-4.8,8.4-15,7-34c-2.3-32.7-8.7-41.4-12-63c-2.2-14.2-2.5-35.7,8-64c1.2-3.3-20.8,20.8-21,48
		c-0.2,23.2,12.4,30.9,15.3,54c1.7,13.5,0.4,33.8-16,60.7C991.3,511,999.1,512.1,1005,508z"/>
	<path class="st2" d="M992.3,503c2.5-2.3,3.8-5.9,2.7-22.3c-0.8-11.6-1.2-18.3-3.7-29.3c-3.6-16.2-5.6-15.5-7.7-26.7
		c-3.7-20.3,0.7-35.5-0.3-35.7c-0.9-0.1-5,10.6-5,24.3c0,12.5,3.5,15.9,8,37.3c3.2,14.9,4.7,22.6,3,31.3c-2.1,10.8-7.8,18.8-12,23.7
		C981,506.3,988,507.1,992.3,503z"/>
	<path class="st2" d="M959.3,307c1.6-0.4,13.7,20.5,11.7,45.7c-1.2,15-6.3,18.1-6.7,32.3c-0.4,17.9,7.4,30.5,11.3,38.7
		c7.9,16.2,14.2,42.6,5.3,86.3c-12.9-0.3-25.8-0.7-38.7-1c23.3-14.4,30.3-28.6,32.3-39c5.2-26.4-18.5-40.5-16-78.7
		c1-16,5.3-15.4,6.3-35C966.5,327.1,958,307.4,959.3,307z"/>
	<path class="st2" d="M956.7,424.3c0.4-0.1,7.2,16.2,8,38.7c0.6,17.2-2.5,31.5-5.3,41c-5.8-0.2-11.6-0.4-17.3-0.7
		c7.2-7.6,15.3-18.7,18.7-33.3C966.2,446,956.2,424.4,956.7,424.3z"/>
	<path class="st2" d="M950.3,395c-3.5,11.7-7.2,29-6.7,50c0.6,24.1,6.5,43.2,11.3,55.3c-5.7,3-11.3,6-17,9
		c-2.1-14.4-3.4-33.2-1.3-55C939,429.8,944.8,409.7,950.3,395z"/>
	<path class="st2" d="M794,507c4.3-2.1,8.1-10.8,16-95c5.3-56.6,0.5-80.2-8.7-102c-2.3-5.4-10.2-30-9-46c1.5-19.5,12.3-33.7,11.7-34
		c-0.5-0.3-9,10-13,24.7c-5.2,19.2,3.6,49.4,7.1,58c5.8,14.5,5.3,39.2,4.9,59.8c-1.1,57-16.7,103.2-30.5,134
		C778.2,508.6,786.6,510.5,794,507z"/>
	<path class="st2" d="M825,310c0.2,0.1-6.5,16.1-9,37.5c-3.3,28.2,2.8,47.3,5.7,63.2c3.8,21.3,4.7,53.1-10.7,96.3
		c-5.5-0.2-12.3-1.2-14.5-5.5c-2.9-5.8,4.2-14,9-22c7.7-13,8.5-25.9,10.2-51.8c2.1-33.7-6.4-34.8-4.3-64
		C813.5,332.8,824.8,309.9,825,310z"/>
	<path class="st2" d="M784,301c0.4,0.1-7.2,23.4-8,55.3c-1,40.5,9.3,74.3,19.3,98c-5.6,20.9-11.1,41.8-16.7,62.7
		c-4.4-2.2-8.9-4.4-13.3-6.7c3.6-10.7,8-26.8,9.3-46.7c1.7-25.7-3-39.4-5.3-58.7C762.5,348,783.5,300.9,784,301z"/>
</g>
</svg>
